<svg xmlns="http://www.w3.org/2000/svg" xmlns:xlink="http://www.w3.org/1999/xlink" width="604" height="77" viewBox="0 0 604 77"><defs><path id="a" d="M-120-176h800v600h-800z"/></defs><clipPath id="b"><use xlink:href="#a" overflow="visible"/></clipPath><path clip-path="url(#b)" fill="#FFF" d="M48.971 13.779a7.818 7.818 0 0 1 2.382 1.561 7.548 7.548 0 0 1 1.609 2.311c.408.896.612 1.842.612 2.842v36.374c0 .333-.119.614-.354.843a1.202 1.202 0 0 1-.869.343h-8.949c-.344 0-.622-.114-.836-.343a1.18 1.18 0 0 1-.322-.843V23.803h-7.21v33.064c0 .333-.108.614-.322.843-.216.229-.494.343-.837.343h-8.112c-.344 0-.633-.114-.869-.343s-.354-.51-.354-.843V23.803h-7.21v33.064c0 .791-.408 1.186-1.223 1.186H7.223c-.816 0-1.223-.395-1.223-1.186V14.372c0-.79.407-1.186 1.223-1.186h38.819c1.03 0 2.006.198 2.929.593m43.62 33.382c.363 0 .659.118.887.353.227.235.341.523.341.865v8.462c0 .342-.114.631-.341.865-.228.235-.524.353-.887.353H61.943c-.864 0-1.296-.406-1.296-1.218V14.403c0-.811.432-1.218 1.296-1.218h9.411c.863 0 1.296.407 1.296 1.218v31.603c0 .343.125.62.375.833.249.215.556.321.921.321h18.645zm47.106-33.975c.365 0 .674.119.926.354.251.236.377.525.377.867v42.557c0 .344-.126.633-.377.868a1.305 1.305 0 0 1-.926.354h-9.533c-.366 0-.675-.118-.926-.354a1.142 1.142 0 0 1-.377-.868v-14.85c0-.342-.114-.62-.343-.835-.229-.214-.526-.322-.891-.322h-13.372a1.38 1.38 0 0 0-.926.322 1.048 1.048 0 0 0-.377.835v14.85c0 .815-.435 1.222-1.303 1.222h-9.464c-.869 0-1.303-.407-1.303-1.222V14.407c0-.813.434-1.221 1.303-1.221h9.464c.868 0 1.303.408 1.303 1.221v14.4c0 .815.434 1.222 1.303 1.222h13.372c.365 0 .662-.118.891-.354.229-.235.343-.524.343-.868v-14.4c0-.342.126-.631.377-.867.251-.235.56-.354.926-.354h9.533z"/><path clip-path="url(#b)" fill="none" stroke="#FFF" stroke-miterlimit="10" d="M159 4v63"/><path d="M177.132 57.245V13.562h5.08v39.142h19.272v4.542h-24.352zm29.192-16.433c0-5.329 1.331-9.48 3.992-12.453s6.355-4.459 11.083-4.459c4.568 0 8.197 1.521 10.888 4.563s4.037 7.158 4.037 12.348c0 5.348-1.341 9.523-4.022 12.526s-6.385 4.505-11.112 4.505c-2.92 0-5.512-.688-7.775-2.065-2.264-1.377-4.012-3.352-5.243-5.926-1.233-2.575-1.848-5.587-1.848-9.039zm5.079 0c0 4.193.837 7.388 2.514 9.584 1.675 2.196 4.139 3.294 7.391 3.294s5.721-1.093 7.407-3.279c1.685-2.187 2.528-5.386 2.528-9.599 0-4.173-.843-7.343-2.528-9.509-1.686-2.166-4.175-3.25-7.466-3.25-3.252 0-5.706 1.068-7.361 3.205-1.657 2.136-2.485 5.321-2.485 9.554zm31.882.269c0-5.478 1.31-9.711 3.929-12.699 2.619-2.988 6.369-4.482 11.25-4.482 1.573 0 3.147.169 4.721.508 1.573.339 2.809.737 3.705 1.195l-1.524 4.213a23.4 23.4 0 0 0-3.585-1.091c-1.295-.289-2.44-.433-3.437-.433-6.653 0-9.979 4.243-9.979 12.729 0 4.024.812 7.111 2.435 9.263s4.029 3.227 7.216 3.227c2.729 0 5.528-.587 8.396-1.763v4.393c-2.192 1.135-4.95 1.703-8.277 1.703-4.741 0-8.401-1.459-10.98-4.377-2.581-2.92-3.87-7.048-3.87-12.386zm28.505 7.144c0-6.596 5.296-10.053 15.888-10.371l5.564-.182v-2.057c0-2.601-.551-4.521-1.654-5.762-1.104-1.24-2.869-1.86-5.295-1.86-2.723 0-5.805.847-9.245 2.541l-1.542-3.807c1.613-.864 3.381-1.541 5.304-2.031a23.279 23.279 0 0 1 5.781-.736c3.9 0 6.791.867 8.67 2.6 1.881 1.733 2.822 4.512 2.822 8.336v22.35h-3.676l-.986-4.607h-.238c-1.631 2.031-3.256 3.406-4.877 4.125-1.621.72-3.643 1.08-6.068 1.08-3.263 0-5.82-.833-7.672-2.501-1.851-1.669-2.776-4.041-2.776-7.118zm5.258.06c0 1.802.542 3.173 1.625 4.113 1.084.941 2.6 1.411 4.549 1.411 3.08 0 5.502-.851 7.262-2.552 1.76-1.702 2.639-4.083 2.639-7.146V41.14l-4.949.209c-3.938.14-6.777.756-8.516 1.847-1.74 1.091-2.61 2.787-2.61 5.089zm31.224 8.96V10.753h4.96v46.492h-4.96zm32.121 0V13.562h5.079v18.585h23.008V13.562h5.079v43.684h-5.079V36.688h-23.008v20.557h-5.079zm41.951-9.02c0-6.596 5.296-10.053 15.888-10.371l5.565-.182v-2.057c0-2.601-.552-4.521-1.655-5.762-1.104-1.24-2.868-1.86-5.294-1.86-2.724 0-5.806.847-9.245 2.541l-1.542-3.807c1.614-.864 3.382-1.541 5.304-2.031a23.286 23.286 0 0 1 5.782-.736c3.9 0 6.79.867 8.67 2.6 1.881 1.733 2.821 4.512 2.821 8.336v22.35h-3.675l-.986-4.607h-.239c-1.63 2.031-3.256 3.406-4.876 4.125-1.621.72-3.644 1.08-6.069 1.08-3.263 0-5.819-.833-7.671-2.501-1.852-1.669-2.778-4.041-2.778-7.118zm5.259.06c0 1.802.542 3.173 1.625 4.113 1.084.941 2.6 1.411 4.549 1.411 3.081 0 5.502-.851 7.262-2.552 1.76-1.702 2.64-4.083 2.64-7.146V41.14l-4.95.209c-3.938.14-6.776.756-8.516 1.847s-2.61 2.787-2.61 5.089zm29.401-7.204c0-5.478 1.31-9.711 3.929-12.699 2.619-2.988 6.369-4.482 11.25-4.482 1.573 0 3.146.169 4.721.508 1.573.339 2.809.737 3.705 1.195l-1.524 4.213a23.365 23.365 0 0 0-3.585-1.091c-1.295-.289-2.44-.433-3.437-.433-6.653 0-9.979 4.243-9.979 12.729 0 4.024.812 7.111 2.436 9.263 1.623 2.151 4.028 3.227 7.216 3.227 2.729 0 5.527-.587 8.396-1.763v4.393c-2.191 1.135-4.95 1.703-8.276 1.703-4.741 0-8.401-1.459-10.98-4.377-2.583-2.92-3.872-7.048-3.872-12.386zm30.955 16.164V10.753h4.96v24.65c0 1.096-.081 2.789-.242 5.08h.242c.856-1.215 2.161-2.809 3.914-4.781l10.577-11.205h5.887L460.03 38.451l14.192 18.794h-6.006l-11.562-15.478-3.735 3.227v12.25h-4.96zm48.763 0V13.562h13.386c6.793 0 12.071 1.882 15.836 5.647 3.765 3.765 5.647 9.024 5.647 15.776 0 7.211-1.957 12.724-5.871 16.539s-9.547 5.722-16.897 5.722h-12.101zm5.079-4.392h6.186c6.055 0 10.607-1.489 13.654-4.467 3.048-2.978 4.572-7.385 4.572-13.222 0-5.696-1.43-9.989-4.288-12.878-2.858-2.888-7.106-4.333-12.743-4.333h-7.381v34.9zm36.334-4.628c0-6.596 5.296-10.053 15.888-10.371l5.565-.182v-2.057c0-2.601-.552-4.521-1.655-5.762-1.104-1.24-2.868-1.86-5.294-1.86-2.724 0-5.806.847-9.245 2.541l-1.542-3.807c1.614-.864 3.382-1.541 5.304-2.031a23.286 23.286 0 0 1 5.782-.736c3.9 0 6.79.867 8.67 2.6 1.881 1.733 2.821 4.512 2.821 8.336v22.35h-3.675l-.986-4.607h-.239c-1.63 2.031-3.256 3.406-4.876 4.125-1.621.72-3.644 1.08-6.069 1.08-3.263 0-5.819-.833-7.671-2.501-1.852-1.669-2.778-4.041-2.778-7.118zm5.259.06c0 1.802.542 3.173 1.625 4.113 1.084.941 2.6 1.411 4.549 1.411 3.081 0 5.502-.851 7.262-2.552 1.76-1.702 2.64-4.083 2.64-7.146V41.14l-4.95.209c-3.938.14-6.776.756-8.516 1.847s-2.61 2.787-2.61 5.089zm26.024-23.788h5.318l7.172 18.662c1.573 4.26 2.549 7.335 2.928 9.227h.239c.259-1.015.802-2.752 1.628-5.21s3.53-10.018 8.112-22.678h5.318l-14.073 37.29c-1.395 3.685-3.022 6.3-4.885 7.843-1.863 1.544-4.148 2.316-6.857 2.316-1.514 0-3.008-.171-4.481-.512v-4c1.095.238 2.32.358 3.675.358 3.406 0 5.836-1.911 7.29-5.733l1.823-4.658-13.207-32.905z" fill="#FFF"/></svg>